<svg width="40" height="40" fill="none" xmlns="http://www.w3.org/2000/svg"><path opacity=".2" stroke="#9794C6" d="M20 8.7L33.3 22 20 35.3 6.7 22z"/><g filter="url(#filter0_f)"><path d="M29.75 19.77a.95.95 0 00-.08-1.37l-8.94-7.82a1.11 1.11 0 00-1.45.02l-8.97 8.22a.95.95 0 00-.04 1.36l.22.23c.38.4.98.44 1.35.1l.67-.6v8.8c0 .53.44.97.97.97h3.5c.54 0 .98-.44.98-.97v-6.15h4.46v6.15c-.01.53.37.97.91.97h3.7c.55 0 .98-.44.98-.97v-8.67l.42.36c.22.2.7.04 1.07-.35l.25-.28z" fill="#9794C6"/></g><g filter="url(#filter1_d)"><path d="M29.75 19.77a.95.95 0 00-.08-1.37l-8.94-7.82a1.11 1.11 0 00-1.45.02l-8.97 8.22a.95.95 0 00-.04 1.36l.22.23c.38.4.98.44 1.35.1l.67-.6v8.8c0 .53.44.97.97.97h3.5c.54 0 .98-.44.98-.97v-6.15h4.46v6.15c-.01.53.37.97.91.97h3.7c.55 0 .98-.44.98-.97v-8.67l.42.36c.22.2.7.04 1.07-.35l.25-.28z" fill="url(#paint0_linear)"/></g><defs><filter id="filter0_f" x="0" y=".32" width="40" height="39.36" filterUnits="userSpaceOnUse" color-interpolation-filters="sRGB"><feFlood flood-opacity="0" result="BackgroundImageFix"/><feBlend in="SourceGraphic" in2="BackgroundImageFix" result="shape"/><feGaussianBlur stdDeviation="5" result="effect1_foregroundBlur"/></filter><filter id="filter1_d" x="6" y="7.32" width="28" height="27.36" filterUnits="userSpaceOnUse" color-interpolation-filters="sRGB"><feFlood flood-opacity="0" result="BackgroundImageFix"/><feColorMatrix in="SourceAlpha" values="0 0 0 0 0 0 0 0 0 0 0 0 0 0 0 0 0 0 127 0" result="hardAlpha"/><feOffset dy="1"/><feGaussianBlur stdDeviation="2"/><feColorMatrix values="0 0 0 0 0 0 0 0 0 0 0 0 0 0 0 0 0 0 0.5 0"/><feBlend in2="BackgroundImageFix" result="effect1_dropShadow"/><feBlend in="SourceGraphic" in2="effect1_dropShadow" result="shape"/></filter><linearGradient id="paint0_linear" x1="20" y1="10.32" x2="20" y2="29.68" gradientUnits="userSpaceOnUse"><stop stop-color="#F5EDFF"/><stop offset="1" stop-color="#CABDDB"/></linearGradient></defs></svg>